<?xml version="1.0" standalone="no"?>
<!DOCTYPE svg PUBLIC "-//W3C//DTD SVG 20010904//EN"
 "http://www.w3.org/TR/2001/REC-SVG-20010904/DTD/svg10.dtd">
<svg version="1.0" xmlns="http://www.w3.org/2000/svg"
 width="721.000000pt" height="721.000000pt" viewBox="0 0 721.000000 721.000000"
 preserveAspectRatio="xMidYMid meet">
<metadata>
Created by potrace 1.16, written by Peter Selinger 2001-2019
</metadata>
<g transform="translate(0.000000,721.000000) scale(0.100000,-0.100000)"
fill="#000000" stroke="none">
<path d="M3400 7010 c-453 -28 -855 -129 -1248 -316 -119 -56 -288 -149 -297
-164 -3 -4 24 -22 59 -38 83 -39 166 -93 219 -142 l43 -39 146 69 c253 121
560 213 853 257 174 26 681 26 845 0 347 -55 652 -148 923 -284 l88 -44 67 56
c37 31 113 79 170 108 l103 51 -23 18 c-42 32 -361 187 -488 237 -459 181
-962 261 -1460 231z"/>
<path d="M1148 6460 c-475 -100 -857 -456 -1023 -952 -52 -159 -69 -268 -68
-458 0 -241 40 -413 143 -622 144 -290 356 -505 643 -653 l117 -61 -150 -79
c-82 -44 -150 -82 -150 -86 0 -11 112 -29 184 -29 463 1 783 273 851 720 31
201 13 319 -74 494 -70 141 -80 179 -81 304 0 113 23 188 86 284 128 192 332
223 475 72 86 -91 85 -85 24 -173 -103 -148 -184 -341 -222 -528 -28 -139 -25
-462 6 -607 19 -91 58 -224 86 -297 5 -13 1 -15 -19 -12 -39 8 -83 -15 -108
-56 -20 -31 -23 -49 -22 -136 1 -80 7 -117 29 -185 53 -162 137 -304 240 -405
52 -51 65 -71 85 -130 88 -270 286 -544 505 -701 69 -49 195 -117 202 -110 3
3 -24 42 -60 88 -127 163 -223 339 -285 525 -59 176 -82 335 -82 579 l0 152
28 10 c81 32 148 44 265 49 156 7 231 -9 361 -74 49 -24 92 -41 97 -36 26 26
-84 128 -175 162 -79 29 -180 43 -261 36 l-70 -7 50 32 c66 43 215 189 275
270 143 194 237 426 271 670 11 83 28 139 29 96 0 -34 90 -326 136 -444 55
-141 137 -298 207 -401 88 -128 220 -251 270 -251 22 0 22 32 2 235 -24 250
-24 250 44 110 48 -101 101 -193 178 -311 13 -20 11 -23 -34 -49 -88 -51 -150
-113 -139 -140 4 -12 24 -5 98 30 139 67 197 78 358 72 140 -5 264 -31 281
-59 22 -34 3 -362 -31 -542 -49 -254 -180 -537 -339 -733 -28 -34 -47 -64 -42
-67 12 -8 155 77 238 140 126 97 255 249 346 409 45 79 127 271 127 299 0 7
31 44 68 82 137 139 230 316 268 512 25 129 14 194 -42 250 -31 31 -38 34 -74
28 -22 -3 -40 -5 -40 -3 0 2 9 29 20 61 91 265 116 658 57 906 -44 186 -89
292 -192 455 -40 63 -55 95 -51 111 10 38 107 136 161 161 130 60 279 1 377
-151 56 -87 80 -172 80 -286 1 -117 -16 -179 -82 -303 -27 -51 -55 -119 -64
-152 -69 -272 13 -585 208 -792 119 -126 252 -200 430 -240 115 -25 396 -22
396 5 0 5 -41 28 -91 52 -50 25 -120 61 -155 80 l-64 36 123 62 c409 207 682
583 763 1052 22 127 14 406 -14 530 -69 297 -195 524 -406 736 -211 210 -423
324 -691 370 -125 22 -360 15 -466 -14 -175 -49 -323 -130 -445 -245 -97 -92
-139 -145 -187 -242 -62 -124 -81 -204 -82 -341 l0 -122 -35 30 c-19 16 -69
55 -111 86 -302 230 -694 341 -1019 289 -61 -10 -88 -10 -145 1 -95 18 -331
10 -445 -17 -228 -52 -447 -159 -645 -315 l-60 -47 -3 28 c-25 275 -109 472
-270 631 -139 137 -337 237 -545 277 -110 21 -318 19 -429 -5z m3303 -2782
c43 -66 79 -124 79 -130 0 -7 -16 -9 -46 -4 -26 3 -55 6 -65 6 -12 0 -21 12
-29 38 -10 35 -50 218 -50 229 0 17 41 -35 111 -139z"/>
<path d="M209 3983 c-21 -179 -19 -623 4 -793 78 -580 282 -1105 604 -1554
749 -1042 2029 -1579 3298 -1385 529 81 1034 282 1460 582 675 474 1150 1170
1340 1961 68 285 95 506 95 796 0 198 -18 511 -29 509 -3 0 -28 -30 -56 -66
-54 -70 -168 -181 -226 -220 l-36 -24 -6 -237 c-6 -249 -21 -390 -63 -582
-164 -762 -616 -1437 -1246 -1861 l-87 -59 -203 44 c-112 25 -229 54 -261 65
-225 78 -385 243 -443 456 -10 38 -18 118 -21 218 -3 86 -8 157 -11 157 -2 0
-73 -51 -156 -113 -223 -167 -276 -203 -349 -237 -139 -65 -274 -62 -416 11
-42 22 -159 100 -260 174 -101 74 -187 135 -190 135 -4 0 -12 -27 -18 -61 -18
-96 -58 -165 -142 -250 -79 -79 -153 -126 -282 -179 -67 -28 -785 -230 -817
-230 -39 0 -364 315 -495 480 -236 296 -432 676 -536 1040 -79 276 -111 494
-117 809 l-5 224 -84 73 c-47 41 -115 110 -151 154 -37 44 -70 80 -74 80 -4 0
-14 -53 -21 -117z"/>
<path d="M2767 3346 c-84 -31 -167 -108 -167 -154 0 -28 6 -27 55 3 22 13 45
25 51 25 6 0 14 -21 17 -46 11 -100 113 -184 222 -184 59 0 143 37 174 76 24
30 26 30 68 -6 40 -36 53 -38 53 -7 0 41 -58 146 -110 198 -71 71 -144 103
-245 106 -50 2 -94 -2 -118 -11z"/>
<path d="M4280 3351 c-93 -30 -193 -119 -240 -215 -30 -59 -39 -106 -20 -106
5 0 25 14 43 30 42 36 52 37 72 6 8 -12 37 -35 64 -50 61 -33 152 -36 209 -7
71 37 122 115 122 187 0 19 2 34 4 34 3 0 28 -14 55 -32 28 -17 54 -28 57 -25
12 12 -7 57 -38 92 -52 60 -119 88 -218 91 -47 2 -96 0 -110 -5z"/>
<path d="M3450 2476 c0 -20 47 -74 79 -90 74 -38 177 -23 237 35 34 33 45 69
22 69 -7 0 -48 -8 -91 -17 -74 -16 -83 -16 -146 0 -80 21 -101 21 -101 3z"/>
<path d="M3680 2189 c-42 -19 -47 -19 -85 -5 -55 21 -89 20 -155 -5 -44 -17
-69 -20 -122 -16 -40 4 -70 2 -74 -4 -10 -17 24 -57 73 -86 27 -15 75 -49 108
-75 122 -98 275 -103 387 -13 24 19 73 53 110 75 66 40 88 63 88 94 0 14 -10
15 -67 10 -59 -6 -76 -3 -130 20 -74 31 -76 31 -133 5z"/>
</g>
</svg>
